<svg width="24" height="24" viewBox="0 0 24 24" fill="none" xmlns="http://www.w3.org/2000/svg">
<path d="M7.00005 14.8301C7.18741 15.0163 7.44087 15.1208 7.70505 15.1208C7.96924 15.1208 8.22269 15.0163 8.41005 14.8301L12.0001 11.2901L15.5401 14.8301C15.7274 15.0163 15.9809 15.1208 16.2451 15.1208C16.5092 15.1208 16.7627 15.0163 16.9501 14.8301C17.0438 14.7371 17.1182 14.6265 17.1689 14.5046C17.2197 14.3828 17.2458 14.2521 17.2458 14.1201C17.2458 13.988 17.2197 13.8573 17.1689 13.7355C17.1182 13.6136 17.0438 13.503 16.9501 13.4101L12.7101 9.17006C12.6171 9.07633 12.5065 9.00193 12.3846 8.95117C12.2628 8.9004 12.1321 8.87426 12.0001 8.87426C11.868 8.87426 11.7373 8.9004 11.6155 8.95117C11.4936 9.00193 11.383 9.07633 11.2901 9.17006L7.00005 13.4101C6.90632 13.503 6.83193 13.6136 6.78116 13.7355C6.73039 13.8573 6.70425 13.988 6.70425 14.1201C6.70425 14.2521 6.73039 14.3828 6.78116 14.5046C6.83193 14.6265 6.90632 14.7371 7.00005 14.8301Z" fill="#748494"/>
</svg>
