<svg width="20" height="20" viewBox="0 0 20 20" fill="none" xmlns="http://www.w3.org/2000/svg">
<path d="M15.8333 3.33329H14.1666V2.49996C14.1666 2.27895 14.0788 2.06698 13.9225 1.9107C13.7663 1.75442 13.5543 1.66663 13.3333 1.66663C13.1123 1.66663 12.9003 1.75442 12.744 1.9107C12.5878 2.06698 12.5 2.27895 12.5 2.49996V3.33329H7.49996V2.49996C7.49996 2.27895 7.41216 2.06698 7.25588 1.9107C7.0996 1.75442 6.88764 1.66663 6.66663 1.66663C6.44561 1.66663 6.23365 1.75442 6.07737 1.9107C5.92109 2.06698 5.83329 2.27895 5.83329 2.49996V3.33329H4.16663C3.50358 3.33329 2.8677 3.59668 2.39886 4.06553C1.93002 4.53437 1.66663 5.17025 1.66663 5.83329V15.8333C1.66663 16.4963 1.93002 17.1322 2.39886 17.6011C2.8677 18.0699 3.50358 18.3333 4.16663 18.3333H15.8333C16.4963 18.3333 17.1322 18.0699 17.6011 17.6011C18.0699 17.1322 18.3333 16.4963 18.3333 15.8333V5.83329C18.3333 5.17025 18.0699 4.53437 17.6011 4.06553C17.1322 3.59668 16.4963 3.33329 15.8333 3.33329ZM16.6666 15.8333C16.6666 16.0543 16.5788 16.2663 16.4225 16.4225C16.2663 16.5788 16.0543 16.6666 15.8333 16.6666H4.16663C3.94561 16.6666 3.73365 16.5788 3.57737 16.4225C3.42109 16.2663 3.33329 16.0543 3.33329 15.8333V9.99996H16.6666V15.8333ZM16.6666 8.33329H3.33329V5.83329C3.33329 5.61228 3.42109 5.40032 3.57737 5.24404C3.73365 5.08776 3.94561 4.99996 4.16663 4.99996H5.83329V5.83329C5.83329 6.05431 5.92109 6.26627 6.07737 6.42255C6.23365 6.57883 6.44561 6.66663 6.66663 6.66663C6.88764 6.66663 7.0996 6.57883 7.25588 6.42255C7.41216 6.26627 7.49996 6.05431 7.49996 5.83329V4.99996H12.5V5.83329C12.5 6.05431 12.5878 6.26627 12.744 6.42255C12.9003 6.57883 13.1123 6.66663 13.3333 6.66663C13.5543 6.66663 13.7663 6.57883 13.9225 6.42255C14.0788 6.26627 14.1666 6.05431 14.1666 5.83329V4.99996H15.8333C16.0543 4.99996 16.2663 5.08776 16.4225 5.24404C16.5788 5.40032 16.6666 5.61228 16.6666 5.83329V8.33329Z" fill="#232B34"/>
</svg>
