<svg width="16" height="16" viewBox="0 0 16 16" fill="none" xmlns="http://www.w3.org/2000/svg">
<path d="M12 10V3.33337C12 2.80294 11.7893 2.29423 11.4143 1.91916C11.0392 1.54409 10.5305 1.33337 10 1.33337H3.33337C2.80294 1.33337 2.29423 1.54409 1.91916 1.91916C1.54409 2.29423 1.33337 2.80294 1.33337 3.33337V10C1.33337 10.5305 1.54409 11.0392 1.91916 11.4143C2.29423 11.7893 2.80294 12 3.33337 12H10C10.5305 12 11.0392 11.7893 11.4143 11.4143C11.7893 11.0392 12 10.5305 12 10ZM2.66671 3.33337C2.66671 3.15656 2.73695 2.98699 2.86197 2.86197C2.98699 2.73695 3.15656 2.66671 3.33337 2.66671H10C10.1769 2.66671 10.3464 2.73695 10.4714 2.86197C10.5965 2.98699 10.6667 3.15656 10.6667 3.33337V6.24004L9.94671 5.51337C9.6267 5.1933 9.19265 5.01344 8.74004 5.01337C8.28772 5.01489 7.85421 5.19453 7.53337 5.51337L6.92671 6.12004L6.38671 5.58004C6.02134 5.22053 5.52929 5.01905 5.01671 5.01905C4.50412 5.01905 4.01208 5.22053 3.64671 5.58004L2.66671 6.56671V3.33337ZM2.74671 10.3C2.6953 10.2083 2.66779 10.1052 2.66671 10V8.44671L4.58671 6.52671C4.64308 6.47007 4.71009 6.42512 4.78388 6.39445C4.85767 6.36378 4.9368 6.34799 5.01671 6.34799C5.09662 6.34799 5.17574 6.36378 5.24954 6.39445C5.32333 6.42512 5.39034 6.47007 5.44671 6.52671L6.00004 7.06671L2.74671 10.3ZM8.48004 6.46004C8.51294 6.42389 8.55311 6.3951 8.59792 6.37557C8.64273 6.35604 8.69116 6.3462 8.74004 6.34671C8.78892 6.3462 8.83735 6.35604 8.88216 6.37557C8.92697 6.3951 8.96714 6.42389 9.00004 6.46004L10.6667 8.12004V10C10.6667 10.1769 10.5965 10.3464 10.4714 10.4714C10.3464 10.5965 10.1769 10.6667 10 10.6667H4.26671L8.48004 6.46004ZM14 4.00004C13.8232 4.00004 13.6537 4.07028 13.5286 4.1953C13.4036 4.32033 13.3334 4.4899 13.3334 4.66671V11.3334C13.3334 11.8638 13.1227 12.3725 12.7476 12.7476C12.3725 13.1227 11.8638 13.3334 11.3334 13.3334H4.66671C4.4899 13.3334 4.32033 13.4036 4.1953 13.5286C4.07028 13.6537 4.00004 13.8232 4.00004 14C4.00004 14.1769 4.07028 14.3464 4.1953 14.4714C4.32033 14.5965 4.4899 14.6667 4.66671 14.6667H11.3334C12.2174 14.6667 13.0653 14.3155 13.6904 13.6904C14.3155 13.0653 14.6667 12.2174 14.6667 11.3334V4.66671C14.6667 4.4899 14.5965 4.32033 14.4714 4.1953C14.3464 4.07028 14.1769 4.00004 14 4.00004Z" fill="#5451D6"/>
</svg>
