<svg width="16" height="16" viewBox="0 0 16 16" fill="none" xmlns="http://www.w3.org/2000/svg">
<path d="M7.99999 1.33337C5.06666 1.33337 2.66666 3.73337 2.66666 6.66671C2.66666 10.2667 7.33332 14.3334 7.53332 14.5334C7.79999 14.7334 8.13332 14.7334 8.39999 14.5334C8.66666 14.3334 13.3333 10.2667 13.3333 6.66671C13.3333 3.73337 10.9333 1.33337 7.99999 1.33337ZM7.99999 9.33337C6.53332 9.33337 5.33332 8.13337 5.33332 6.66671C5.33332 5.20004 6.53332 4.00004 7.99999 4.00004C9.46666 4.00004 10.6667 5.20004 10.6667 6.66671C10.6667 8.13337 9.46666 9.33337 7.99999 9.33337Z" fill="#FFFFFF"/>
</svg>