<svg width="12" height="12" viewBox="0 0 12 12" fill="#232B34" xmlns="http://www.w3.org/2000/svg">
<path d="M9.03983 6.20986L5.94984 9.30486C5.54474 9.66487 5.01741 9.8565 4.4757 9.84055C3.93398 9.82461 3.41884 9.60229 3.03562 9.21908C2.65241 8.83586 2.43009 8.32071 2.41414 7.779C2.3982 7.23729 2.58983 6.70995 2.94984 6.30486L6.94984 2.30486C7.18865 2.07801 7.50545 1.95153 7.83484 1.95153C8.16422 1.95153 8.48102 2.07801 8.71984 2.30486C8.95251 2.54066 9.08297 2.8586 9.08297 3.18986C9.08297 3.52113 8.95251 3.83907 8.71984 4.07486L5.26984 7.51986C5.23569 7.55663 5.19464 7.58632 5.14902 7.60722C5.10341 7.62813 5.05412 7.63984 5.00398 7.6417C4.95383 7.64356 4.90382 7.63552 4.85678 7.61805C4.80974 7.60057 4.76661 7.57401 4.72984 7.53986C4.69307 7.50572 4.66338 7.46467 4.64248 7.41905C4.62157 7.37343 4.60985 7.32415 4.608 7.274C4.60614 7.22386 4.61418 7.17384 4.63165 7.1268C4.64912 7.07977 4.67569 7.03663 4.70984 6.99986L7.27484 4.43986C7.36899 4.34571 7.42188 4.21801 7.42188 4.08486C7.42188 3.95171 7.36899 3.82401 7.27484 3.72986C7.18068 3.63571 7.05299 3.58282 6.91984 3.58282C6.78668 3.58282 6.65899 3.63571 6.56484 3.72986L3.99984 6.29986C3.87149 6.42721 3.76962 6.57871 3.7001 6.74562C3.63058 6.91253 3.59479 7.09155 3.59479 7.27236C3.59479 7.45317 3.63058 7.63219 3.7001 7.7991C3.76962 7.96601 3.87149 8.11751 3.99984 8.24486C4.26202 8.49461 4.61024 8.63391 4.97234 8.63391C5.33443 8.63391 5.68265 8.49461 5.94484 8.24486L9.38984 4.79486C9.78728 4.36834 10.0036 3.8042 9.99336 3.22129C9.98308 2.63839 9.74694 2.08224 9.3347 1.67C8.92246 1.25776 8.36631 1.02162 7.7834 1.01134C7.2005 1.00105 6.63636 1.21742 6.20984 1.61486L2.20984 5.61486C1.67044 6.21228 1.38235 6.99479 1.4056 7.79935C1.42886 8.60391 1.76165 9.36848 2.33466 9.93374C2.90766 10.499 3.67667 10.8214 4.48148 10.8337C5.28628 10.846 6.0648 10.5473 6.65484 9.99986L9.74984 6.90986C9.79645 6.86324 9.83343 6.8079 9.85866 6.74699C9.88389 6.68608 9.89688 6.62079 9.89688 6.55486C9.89688 6.48893 9.88389 6.42365 9.85866 6.36274C9.83343 6.30183 9.79645 6.24648 9.74984 6.19986C9.70322 6.15324 9.64787 6.11626 9.58696 6.09103C9.52605 6.0658 9.46076 6.05282 9.39484 6.05282C9.32891 6.05282 9.26362 6.0658 9.20271 6.09103C9.1418 6.11626 9.08645 6.15324 9.03983 6.19986V6.20986Z" fill="#232B34"/>
</svg>
