<svg width="92" height="65" viewBox="0 0 92 65" fill="none" xmlns="http://www.w3.org/2000/svg">
<path d="M86.1383 63.04C85.9428 63.04 85.7473 62.9748 85.5844 62.8445L28.2998 13.9343C27.9414 13.6085 27.8762 13.0545 28.2021 12.6961C28.5279 12.3376 29.0819 12.2725 29.4403 12.5983L86.6923 61.5085C87.0507 61.8344 87.1159 62.3883 86.79 62.7468C86.6271 62.9423 86.3664 63.04 86.1383 63.04Z" fill="#5451D6"/>
<path d="M48.6004 63.0398C48.4049 63.0398 48.2094 62.9746 48.0464 62.8443C47.7858 62.6488 47.6554 62.3229 47.7206 61.9971L53.1949 34.6256C53.2926 34.1368 53.7488 33.8436 54.2376 33.9413C54.7264 34.0391 55.0196 34.4953 54.9219 34.9841L49.7734 60.6611L79.654 47.008C80.1102 46.8124 80.5989 47.008 80.827 47.4316C81.0225 47.8877 80.827 48.3765 80.4034 48.6046L48.9588 62.9746C48.8611 63.0398 48.7307 63.0398 48.6004 63.0398Z" fill="#407BFF"/>
<path d="M28.8863 13.283H0.895752C8.16223 25.6653 28.2672 51.4075 48.2093 51.4075H72.6155C56.8443 51.4075 36.1202 25.6653 28.8863 13.283Z" fill="#5451D6"/>
<path opacity="0.2" d="M28.8863 13.283H0.895752C8.16222 25.6653 28.2672 51.4075 48.2093 51.4075H72.6155C56.8443 51.4075 36.1202 25.6653 28.8863 13.283Z" fill="black"/>
<path d="M33.057 16.7366L33.2525 16.5085L33.4806 16.2478C33.6435 16.0849 33.7739 15.922 33.9368 15.7265C34.23 15.368 34.5559 15.0096 34.8166 14.6511C35.4031 13.9343 35.9245 13.1522 36.4458 12.4028C36.7065 12.0118 36.9346 11.6207 37.1301 11.2297C37.3582 10.8387 37.5537 10.4477 37.7492 10.0241C38.1077 9.20944 38.4009 8.39481 38.5964 7.58018L39.1178 9.40495C38.9549 9.17685 38.5313 8.78583 38.0099 8.45998C37.4886 8.13413 36.9346 7.80828 36.3481 7.48243C35.7615 7.15658 35.1424 6.86331 34.4907 6.57005L32.5682 5.72283L32.5356 5.69025C31.9165 5.42957 31.6558 4.7127 31.9165 4.09358C32.112 3.63739 32.6008 3.37671 33.057 3.37671C33.839 3.40929 34.5885 3.50705 35.3379 3.6048C36.0874 3.73514 36.8368 3.86548 37.5863 4.09358C38.3358 4.28909 39.1178 4.54977 39.8673 4.87562C40.6493 5.23406 41.4313 5.62508 42.2786 6.47229C42.7347 6.92848 42.8977 7.51501 42.8325 8.10155L42.7999 8.29705C42.637 9.5027 42.3437 10.6432 41.9201 11.7511C41.5291 12.859 41.0077 13.8691 40.4538 14.8467C39.8999 15.8242 39.2481 16.7692 38.5639 17.649C38.2054 18.0726 37.8796 18.5288 37.4886 18.9524C37.293 19.1479 37.1301 19.376 36.902 19.5715L36.6088 19.8648L36.2829 20.1906C35.3379 21.103 33.8064 21.103 32.8941 20.1254C31.9817 19.2131 31.9817 17.7467 32.8615 16.8018L33.057 16.7366Z" fill="#F97777"/>
<path d="M33.8717 3.4744L31.0694 3.11597L30.1244 6.50481C30.1244 6.50481 32.9593 7.22169 34.1649 5.39692L33.8717 3.4744Z" fill="#F97777"/>
<path d="M28.8863 3.08374L28.5278 5.91865L30.1571 6.50517L31.0695 3.11633L28.8863 3.08374Z" fill="#DF6363"/>
<path d="M37.1302 43.3591C37.1302 43.3591 29.5379 37.4612 23.1186 26.0564C21.5871 23.3519 22.8253 19.9304 25.7254 18.8225C28.1367 17.9102 30.7435 17.0304 32.8941 16.3461C35.0448 15.6618 37.3909 16.4438 38.6617 18.3338C41.3011 22.244 43.8753 27.7508 51.9238 34.3656C52.38 34.7566 52.3148 35.4735 51.7935 35.7668L37.1302 43.3591Z" fill="#407BFF"/>
<path opacity="0.8" d="M37.1302 43.3591C37.1302 43.3591 29.5379 37.4612 23.1186 26.0564C21.5871 23.3519 22.8253 19.9304 25.7254 18.8225C28.1367 17.9102 30.7435 17.0304 32.8941 16.3461C35.0448 15.6618 37.3909 16.4438 38.6617 18.3338C41.3011 22.244 43.8753 27.7508 51.9238 34.3656C52.38 34.7566 52.3148 35.4735 51.7935 35.7668L37.1302 43.3591Z" fill="white"/>
<path opacity="0.2" d="M22.5319 24.5898C23.4768 21.6246 24.2915 22.5044 24.6825 22.7976C27.5826 25.1112 29.114 30.0967 28.8208 34.626C26.9634 32.2473 24.9757 29.3472 23.0858 26.0236C22.8251 25.5348 22.6296 25.046 22.5319 24.5898Z" fill="black"/>
<path d="M23.1514 11.0344C24.6829 12.9569 26.9964 16.6065 26.247 18.5942C27.974 19.2785 29.8965 19.6043 32.4381 18.6919C34.9798 17.7795 34.1325 16.8997 32.9921 16.2806C30.3527 16.6716 29.4077 14.6514 28.9515 12.8266L23.1514 11.0344Z" fill="#F97777"/>
<path opacity="0.2" d="M28.9839 12.859L25.7253 11.8489C25.7905 12.2073 26.1489 13.6736 26.6051 14.3253C27.2894 15.3681 29.1468 15.9546 30.5153 15.6939C29.6681 15.0096 29.2445 13.9017 28.9839 12.859Z" fill="black"/>
<path d="M30.1246 3.53979C31.2976 4.48476 31.8516 6.66796 31.428 8.16687C29.3099 4.81061 29.2773 3.80048 29.2773 3.80048L30.1246 3.53979Z" fill="#263238"/>
<path d="M22.8254 8.19976C23.5749 11.2628 23.8681 13.0875 25.7255 14.4561C28.5278 16.5415 32.1121 14.619 32.2751 11.4257C32.438 8.5582 31.1672 4.02887 27.9087 3.21424C24.6827 2.4322 22.0434 5.16935 22.8254 8.19976Z" fill="#F97777"/>
<path d="M23.3467 11.0344C24.1613 9.92649 24.5198 7.77587 24.0636 6.1792C26.0187 5.69042 32.0795 5.33199 30.4177 2.07348C28.7558 -1.18503 26.5075 0.281295 26.4749 1.45436C22.7602 0.379051 20.2837 1.61729 21.2939 2.72518C17.4814 4.09376 18.8174 7.18934 19.6646 7.58036C18.3286 9.14445 18.9151 12.6962 21.0006 12.7614C23.0535 12.8266 23.9658 14.4232 25.1389 13.967C24.8782 12.794 23.3467 11.0344 23.3467 11.0344Z" fill="#263238"/>
<path d="M21.8802 11.4904C22.369 12.1095 23.0533 12.4354 23.705 12.5331C24.65 12.6635 24.9432 11.8163 24.5196 11.0016C24.1612 10.2848 23.2162 9.33979 22.369 9.56788C21.4892 9.79598 21.3263 10.7735 21.8802 11.4904Z" fill="#F97777"/>
<path d="M83.5314 61.183L87.2461 60.4987L78.0571 52.0266L75.4829 55.7413L83.5314 61.183Z" fill="#F97777"/>
<path d="M83.4009 63.1703C83.1076 62.3231 83.3357 61.1826 82.4885 59.8792C82.4885 59.8792 84.4436 57.8915 85.2583 58.7713C86.0729 59.6511 88.6145 60.5309 91.6775 59.8141C92.1011 59.7163 92.2315 61.0197 91.2865 61.3456C89.6898 61.8995 88.5168 62.2905 87.1482 62.7467C85.9751 63.1377 85.7796 63.4962 84.8672 63.8872C84.0852 64.213 83.6942 64.0175 83.4009 63.1703Z" fill="#F97777"/>
<path d="M48.4373 37.4609C48.4373 37.4609 60.5589 39.0902 67.6951 41.5992C72.4199 43.2611 81.3808 54.3726 81.3808 54.3726L77.7639 58.0221C77.7639 58.0221 68.7704 52.0916 62.1882 48.8657C50.6531 51.1467 38.955 51.8961 37.1628 43.3588C39.8022 41.5992 48.4373 37.4609 48.4373 37.4609Z" fill="#263238"/>
<path opacity="0.2" d="M65.8703 41.469L64.6321 50.1366C66.6524 51.2119 68.7378 52.4176 70.6277 53.5581L65.8703 41.469Z" fill="black"/>
<path d="M83.2059 54.6005L77.9923 59.7163L76.2327 58.0545L81.6092 52.5476L83.2059 54.6005Z" fill="#407BFF"/>
<path d="M52.0215 34.8214C52.0215 34.8214 65.7724 30.3899 72.876 32.8989C77.6008 34.5608 73.2344 50.2994 73.2344 50.2994L66.7825 51.0814C66.7825 51.0814 66.0657 44.7925 65.4791 41.5992C59.6464 44.043 42.4741 49.2241 40.7145 40.6868C43.3865 38.9598 52.0215 34.8214 52.0215 34.8214Z" fill="#263238"/>
<path d="M69.3569 59.7162L72.4525 59.8792L72.1918 49.5823L67.6625 49.9081L69.3569 59.7162Z" fill="#F97777"/>
<path d="M68.249 61.704C68.5097 60.8568 69.3569 60.0422 69.4547 58.5107C69.4547 58.5107 72.1918 58.0545 72.3547 59.2275C72.4851 60.4006 74.0166 62.6164 76.9492 63.8546C77.3403 64.0175 76.7211 65.158 75.7436 64.8647C74.1143 64.376 72.9413 63.985 71.5727 63.5613C70.3996 63.2029 70.0086 63.3658 69.0636 63.1377C68.2164 62.9422 67.9883 62.5512 68.249 61.704Z" fill="#F97777"/>
<path d="M73.8861 51.2444L66.6522 52.3849L66.196 49.9736L73.7558 48.6702L73.8861 51.2444Z" fill="#407BFF"/>
<path d="M27.094 23.3843C27.2895 25.5023 27.4525 27.6855 27.7131 29.8035C27.8109 30.8788 27.9738 31.9216 28.1042 32.9643C28.2671 33.9744 28.4626 35.0171 28.6907 35.8318C28.7559 36.0273 28.821 36.2228 28.8536 36.3205C28.8862 36.3857 28.8862 36.4183 28.8862 36.3857C28.8862 36.3857 28.8862 36.3857 28.821 36.3205C28.7884 36.288 28.7884 36.2554 28.7559 36.2554L28.6907 36.2228C28.6581 36.2228 28.6581 36.1902 28.6255 36.1902L28.5929 36.1576C28.5603 36.1576 28.5603 36.125 28.5278 36.125C28.4952 36.0924 28.4952 36.125 28.5603 36.1576C28.5929 36.1902 28.6907 36.2228 28.7559 36.2554C28.9188 36.3205 29.1469 36.3857 29.3424 36.4509C29.7986 36.5486 30.2874 36.6464 30.8087 36.7442C31.3301 36.8419 31.8514 36.9071 32.3728 36.9722C34.4908 37.2329 36.674 37.3958 38.8572 37.6239H38.8898C39.5415 37.6891 40.0303 38.2756 39.9651 38.9273C39.8999 39.4813 39.4763 39.9049 38.9876 39.9701C36.7392 40.3611 34.5234 40.5566 32.2425 40.6218C31.102 40.6544 29.9615 40.6544 28.6907 40.4914C28.3648 40.4589 28.039 40.3937 27.6805 40.3285C27.485 40.2959 27.3221 40.2308 27.094 40.1656C26.8985 40.1004 26.6704 40.0027 26.3771 39.8397C26.312 39.8071 26.2468 39.742 26.149 39.7094L26.0187 39.6116L25.8884 39.5139C25.8558 39.4813 25.7906 39.4487 25.758 39.3835C25.6929 39.351 25.6603 39.2858 25.6277 39.2206C25.5299 39.0903 25.4973 39.0577 25.4322 38.9925C25.2367 38.7644 25.1389 38.5689 25.0086 38.3734C24.8131 37.9824 24.6501 37.6565 24.5198 37.3307C24.2591 36.679 24.0962 36.0924 23.9333 35.5059C23.7703 34.9194 23.64 34.3654 23.5422 33.7789C23.3141 32.6384 23.1186 31.5305 22.9557 30.3901C22.6299 28.1417 22.4018 25.9259 22.304 23.6449C22.2388 22.309 23.249 21.2011 24.585 21.1359C25.8884 21.0707 26.9963 22.0483 27.094 23.3191V23.3843Z" fill="#F97777"/>
<path d="M59.9725 32.2803L66.7828 35.441C67.2064 35.6365 67.4996 36.2557 67.2064 36.3534L47.8182 42.3817C47.5901 42.4468 47.2643 42.3816 46.9059 42.1536L41.2035 38.7321C40.7799 38.4714 40.5518 37.9175 40.845 37.8523L59.9725 32.2803Z" fill="#4644B5"/>
<path opacity="0.4" d="M59.9725 32.2803L66.7828 35.441C67.2064 35.6365 67.4996 36.2557 67.2064 36.3534L47.8182 42.3817C47.5901 42.4468 47.2643 42.3817 46.9059 42.1536L41.2035 38.7321C40.7799 38.4714 40.5518 37.9175 40.845 37.8523L59.9725 32.2803Z" fill="black"/>
<path d="M68.1197 22.3089L48.1125 28.3698C47.8518 28.4349 47.6563 28.6956 47.6237 28.9563L46.9069 41.7297C46.9069 41.9903 47.0698 42.1207 47.3305 42.0555L67.3377 35.9947C67.5984 35.9295 67.7939 35.6688 67.8265 35.4082L68.5434 22.6348C68.5434 22.3741 68.3478 22.2112 68.1197 22.3089Z" fill="#5451D6"/>
<path opacity="0.4" d="M47.6229 28.9566L46.906 41.73C46.906 41.9907 47.0689 42.121 47.3296 42.0558L48.0791 28.3701C47.851 28.4353 47.6555 28.696 47.6229 28.9566Z" fill="black"/>
<path d="M38.4662 37.4613L41.2033 36.9399L41.073 40.5243C41.073 40.5243 37.9774 40.785 37.4886 39.3838L37.7493 38.1782C37.8145 37.7872 38.1078 37.5265 38.4662 37.4613Z" fill="#F97777"/>
<path d="M43.2561 37.168L44.2662 39.8074L41.0403 40.5243L41.2032 36.9399L43.2561 37.168Z" fill="#F97777"/>
<path d="M58.115 63.04C57.9195 63.04 57.724 62.9748 57.5611 62.8445L0.309102 13.9343C-0.0493338 13.6085 -0.114505 13.0545 0.211346 12.6961C0.537197 12.3376 1.09114 12.2725 1.44958 12.5983L58.7016 61.5085C59.06 61.8344 59.1252 62.3883 58.7993 62.7468C58.6364 62.9423 58.3757 63.04 58.115 63.04Z" fill="#407BFF"/>
<path opacity="0.3" d="M58.115 63.04C57.9195 63.04 57.724 62.9748 57.5611 62.8445L0.309102 13.9343C-0.0493338 13.6085 -0.114505 13.0545 0.211346 12.6961C0.537197 12.3376 1.09114 12.2725 1.44958 12.5983L58.7016 61.5085C59.06 61.8344 59.1252 62.3883 58.7993 62.7468C58.6364 62.9423 58.3757 63.04 58.115 63.04Z" fill="white"/>
<path d="M20.6097 63.0398C20.4141 63.0398 20.2186 62.9746 20.0557 62.8443C19.795 62.6488 19.6647 62.3229 19.7299 61.9971L25.2042 34.6256C25.3019 34.1368 25.7581 33.8436 26.2469 33.9413C26.7357 34.0391 27.0289 34.4953 26.9312 34.9841L21.7827 60.6611L51.6632 47.008C52.1194 46.8124 52.6082 47.008 52.8363 47.4316C53.0318 47.8877 52.8363 48.3765 52.4127 48.6046L20.9681 62.9746C20.8703 63.0398 20.74 63.0398 20.6097 63.0398Z" fill="#407BFF"/>
<path opacity="0.3" d="M20.6097 63.0398C20.4141 63.0398 20.2186 62.9746 20.0557 62.8443C19.795 62.6488 19.6647 62.3229 19.7299 61.9971L25.2042 34.6256C25.3019 34.1368 25.7581 33.8436 26.2469 33.9413C26.7357 34.0391 27.0289 34.4953 26.9312 34.9841L21.7827 60.6611L51.6632 47.008C52.1194 46.8124 52.6082 47.008 52.8363 47.4316C53.0318 47.8877 52.8363 48.3765 52.4127 48.6046L20.9681 62.9746C20.8703 63.0398 20.74 63.0398 20.6097 63.0398Z" fill="white"/>
</svg>
